<mxfile host="app.diagrams.net" modified="2024-02-12T15:54:35.222Z" agent="Mozilla/5.0 (Macintosh; Intel Mac OS X 10_15_7) AppleWebKit/537.36 (KHTML, like Gecko) Chrome/121.0.0.0 Safari/537.36" etag="7xTOaetzQlYm2dEuHs6a" version="23.1.2" type="google">
  <diagram name="Page-1" id="NJPWzTDh_QYS_qL_PLhn">
    <mxGraphModel dx="1366" dy="1552" grid="1" gridSize="10" guides="1" tooltips="1" connect="1" arrows="1" fold="1" page="1" pageScale="1" pageWidth="1169" pageHeight="827" math="0" shadow="0">
      <root>
        <mxCell id="0" />
        <mxCell id="1" parent="0" />
        <mxCell id="nHS9BQ21Hv6cFwP2-atW-1" value="" style="ellipse;fillColor=strokeColor;html=1;" vertex="1" parent="1">
          <mxGeometry x="20" y="-611.25" width="30" height="30" as="geometry" />
        </mxCell>
        <mxCell id="nHS9BQ21Hv6cFwP2-atW-2" value="&lt;font color=&quot;#6600cc&quot;&gt;REPORT NOT RECEIVED&lt;/font&gt;" style="html=1;align=center;verticalAlign=middle;rounded=1;absoluteArcSize=1;arcSize=10;dashed=0;whiteSpace=wrap;" vertex="1" parent="1">
          <mxGeometry x="160" y="-630" width="120" height="67.5" as="geometry" />
        </mxCell>
        <mxCell id="nHS9BQ21Hv6cFwP2-atW-5" value="&lt;font color=&quot;#6600cc&quot;&gt;PENDING RECONCILIATION&lt;/font&gt;" style="html=1;align=center;verticalAlign=middle;rounded=1;absoluteArcSize=1;arcSize=10;dashed=0;whiteSpace=wrap;" vertex="1" parent="1">
          <mxGeometry x="390" y="-630" width="120" height="67.5" as="geometry" />
        </mxCell>
        <mxCell id="nHS9BQ21Hv6cFwP2-atW-6" value="&lt;font color=&quot;#6600cc&quot;&gt;RECONCILIATION &lt;br&gt;IN PROGRESS&lt;/font&gt;" style="html=1;align=center;verticalAlign=middle;rounded=1;absoluteArcSize=1;arcSize=10;dashed=0;whiteSpace=wrap;" vertex="1" parent="1">
          <mxGeometry x="625" y="-630" width="120" height="67.5" as="geometry" />
        </mxCell>
        <mxCell id="nHS9BQ21Hv6cFwP2-atW-7" value="&lt;font color=&quot;#6600cc&quot;&gt;RECONCILIATION COMPLETED&lt;/font&gt;" style="html=1;align=center;verticalAlign=middle;rounded=1;absoluteArcSize=1;arcSize=10;dashed=0;whiteSpace=wrap;" vertex="1" parent="1">
          <mxGeometry x="1030" y="-630" width="120" height="67.5" as="geometry" />
        </mxCell>
        <mxCell id="nHS9BQ21Hv6cFwP2-atW-11" value="" style="endArrow=classic;html=1;rounded=0;exitX=1;exitY=0.5;exitDx=0;exitDy=0;entryX=0;entryY=0.5;entryDx=0;entryDy=0;" edge="1" parent="1" source="nHS9BQ21Hv6cFwP2-atW-1" target="nHS9BQ21Hv6cFwP2-atW-2">
          <mxGeometry width="50" height="50" relative="1" as="geometry">
            <mxPoint x="120" y="-641.25" as="sourcePoint" />
            <mxPoint x="170" y="-691.25" as="targetPoint" />
          </mxGeometry>
        </mxCell>
        <mxCell id="nHS9BQ21Hv6cFwP2-atW-12" value="&lt;font color=&quot;#00994d&quot;&gt;DUE REPORT&lt;br&gt;INITIALISED&lt;/font&gt;" style="edgeLabel;html=1;align=center;verticalAlign=middle;resizable=0;points=[];" vertex="1" connectable="0" parent="nHS9BQ21Hv6cFwP2-atW-11">
          <mxGeometry x="-0.0846" y="3" relative="1" as="geometry">
            <mxPoint as="offset" />
          </mxGeometry>
        </mxCell>
        <mxCell id="nHS9BQ21Hv6cFwP2-atW-13" value="" style="endArrow=classic;html=1;rounded=0;exitX=1;exitY=0.5;exitDx=0;exitDy=0;entryX=0;entryY=0.5;entryDx=0;entryDy=0;" edge="1" parent="1" source="nHS9BQ21Hv6cFwP2-atW-2" target="nHS9BQ21Hv6cFwP2-atW-5">
          <mxGeometry width="50" height="50" relative="1" as="geometry">
            <mxPoint x="460" y="-510" as="sourcePoint" />
            <mxPoint x="510" y="-560" as="targetPoint" />
          </mxGeometry>
        </mxCell>
        <mxCell id="nHS9BQ21Hv6cFwP2-atW-14" value="&lt;font color=&quot;#00994d&quot;&gt;REPORT&lt;br&gt;UPLOADED&lt;/font&gt;" style="edgeLabel;html=1;align=center;verticalAlign=middle;resizable=0;points=[];" vertex="1" connectable="0" parent="nHS9BQ21Hv6cFwP2-atW-13">
          <mxGeometry x="-0.0766" relative="1" as="geometry">
            <mxPoint as="offset" />
          </mxGeometry>
        </mxCell>
        <mxCell id="nHS9BQ21Hv6cFwP2-atW-17" value="" style="endArrow=classic;html=1;rounded=0;entryX=0.25;entryY=0;entryDx=0;entryDy=0;exitX=0.5;exitY=0;exitDx=0;exitDy=0;" edge="1" parent="1" source="nHS9BQ21Hv6cFwP2-atW-5" target="nHS9BQ21Hv6cFwP2-atW-7">
          <mxGeometry width="50" height="50" relative="1" as="geometry">
            <mxPoint x="490" y="-630" as="sourcePoint" />
            <mxPoint x="930" y="-670" as="targetPoint" />
            <Array as="points">
              <mxPoint x="450" y="-710" />
              <mxPoint x="1060" y="-710" />
            </Array>
          </mxGeometry>
        </mxCell>
        <mxCell id="nHS9BQ21Hv6cFwP2-atW-27" value="&lt;font style=&quot;&quot;&gt;&lt;span style=&quot;font-size: 10px;&quot;&gt;ALL&lt;/span&gt;&lt;br&gt;&lt;span style=&quot;font-size: 10px;&quot;&gt;PAYMENTS&lt;/span&gt;&lt;br&gt;&lt;span style=&quot;font-size: 10px;&quot;&gt;REMOVED?&lt;br&gt;&lt;/span&gt;&lt;br&gt;&lt;/font&gt;" style="rhombus;whiteSpace=wrap;html=1;labelBackgroundColor=none;fillColor=#CCCCCC;fontColor=default;" vertex="1" parent="1">
          <mxGeometry x="515" y="-530" width="110" height="110" as="geometry" />
        </mxCell>
        <mxCell id="nHS9BQ21Hv6cFwP2-atW-32" value="&lt;font style=&quot;font-size: 10px;&quot;&gt;ALL&lt;br&gt;FEE RECORDS&lt;br&gt;KEYED?&lt;/font&gt;" style="rhombus;whiteSpace=wrap;html=1;labelBackgroundColor=none;fillColor=#CCCCCC;fontColor=default;" vertex="1" parent="1">
          <mxGeometry x="870" y="-651.25" width="110" height="110" as="geometry" />
        </mxCell>
        <mxCell id="nHS9BQ21Hv6cFwP2-atW-33" value="" style="endArrow=classic;html=1;rounded=0;exitX=0.75;exitY=0;exitDx=0;exitDy=0;entryX=0.25;entryY=0;entryDx=0;entryDy=0;" edge="1" parent="1" source="nHS9BQ21Hv6cFwP2-atW-5" target="nHS9BQ21Hv6cFwP2-atW-6">
          <mxGeometry width="50" height="50" relative="1" as="geometry">
            <mxPoint x="530" y="-651.25" as="sourcePoint" />
            <mxPoint x="640" y="-651.25" as="targetPoint" />
            <Array as="points">
              <mxPoint x="480" y="-670" />
              <mxPoint x="655" y="-670" />
            </Array>
          </mxGeometry>
        </mxCell>
        <mxCell id="nHS9BQ21Hv6cFwP2-atW-34" value="&lt;font color=&quot;#00994d&quot;&gt;PAYMENT&lt;br&gt;ADDED TO&lt;br&gt;FEE RECORD&lt;/font&gt;" style="edgeLabel;html=1;align=center;verticalAlign=middle;resizable=0;points=[];" vertex="1" connectable="0" parent="nHS9BQ21Hv6cFwP2-atW-33">
          <mxGeometry x="-0.0766" relative="1" as="geometry">
            <mxPoint x="9" y="1" as="offset" />
          </mxGeometry>
        </mxCell>
        <mxCell id="nHS9BQ21Hv6cFwP2-atW-38" value="" style="endArrow=classic;html=1;rounded=0;exitX=1;exitY=0.5;exitDx=0;exitDy=0;entryX=0;entryY=0.5;entryDx=0;entryDy=0;" edge="1" parent="1" source="nHS9BQ21Hv6cFwP2-atW-32" target="nHS9BQ21Hv6cFwP2-atW-7">
          <mxGeometry width="50" height="50" relative="1" as="geometry">
            <mxPoint x="960" y="-500" as="sourcePoint" />
            <mxPoint x="1010" y="-550" as="targetPoint" />
          </mxGeometry>
        </mxCell>
        <mxCell id="nHS9BQ21Hv6cFwP2-atW-39" value="YES" style="edgeLabel;html=1;align=center;verticalAlign=middle;resizable=0;points=[];" vertex="1" connectable="0" parent="nHS9BQ21Hv6cFwP2-atW-38">
          <mxGeometry x="-0.2509" y="-2" relative="1" as="geometry">
            <mxPoint y="-1" as="offset" />
          </mxGeometry>
        </mxCell>
        <mxCell id="nHS9BQ21Hv6cFwP2-atW-40" value="" style="endArrow=classic;html=1;rounded=0;exitX=0.5;exitY=1;exitDx=0;exitDy=0;entryX=0.75;entryY=1;entryDx=0;entryDy=0;" edge="1" parent="1" source="nHS9BQ21Hv6cFwP2-atW-32" target="nHS9BQ21Hv6cFwP2-atW-6">
          <mxGeometry width="50" height="50" relative="1" as="geometry">
            <mxPoint x="800" y="-470" as="sourcePoint" />
            <mxPoint x="850" y="-520" as="targetPoint" />
            <Array as="points">
              <mxPoint x="925" y="-510" />
              <mxPoint x="715" y="-510" />
            </Array>
          </mxGeometry>
        </mxCell>
        <mxCell id="nHS9BQ21Hv6cFwP2-atW-41" value="NO" style="edgeLabel;html=1;align=center;verticalAlign=middle;resizable=0;points=[];" vertex="1" connectable="0" parent="nHS9BQ21Hv6cFwP2-atW-40">
          <mxGeometry x="-0.9238" y="-1" relative="1" as="geometry">
            <mxPoint y="2" as="offset" />
          </mxGeometry>
        </mxCell>
        <mxCell id="nHS9BQ21Hv6cFwP2-atW-47" value="" style="endArrow=classic;html=1;rounded=0;entryX=1;entryY=0.25;entryDx=0;entryDy=0;exitX=0.75;exitY=0;exitDx=0;exitDy=0;" edge="1" parent="1" source="nHS9BQ21Hv6cFwP2-atW-6" target="nHS9BQ21Hv6cFwP2-atW-6">
          <mxGeometry width="50" height="50" relative="1" as="geometry">
            <mxPoint x="680" y="-840.0000000000001" as="sourcePoint" />
            <mxPoint x="650" y="-840.0000000000001" as="targetPoint" />
            <Array as="points">
              <mxPoint x="715" y="-670" />
              <mxPoint x="840" y="-670" />
              <mxPoint x="840" y="-613" />
            </Array>
          </mxGeometry>
        </mxCell>
        <mxCell id="nHS9BQ21Hv6cFwP2-atW-49" value="&lt;font color=&quot;#00994d&quot;&gt;PAYMENT&lt;br&gt;ADDED TO&lt;br&gt;FEE RECORD&lt;/font&gt;" style="edgeLabel;html=1;align=center;verticalAlign=middle;resizable=0;points=[];" vertex="1" connectable="0" parent="nHS9BQ21Hv6cFwP2-atW-47">
          <mxGeometry x="-0.0086" y="-2" relative="1" as="geometry">
            <mxPoint x="-54" y="1" as="offset" />
          </mxGeometry>
        </mxCell>
        <mxCell id="nHS9BQ21Hv6cFwP2-atW-50" value="" style="endArrow=classic;html=1;rounded=0;entryX=1;entryY=0.5;entryDx=0;entryDy=0;exitX=0.25;exitY=1;exitDx=0;exitDy=0;" edge="1" parent="1" source="nHS9BQ21Hv6cFwP2-atW-6" target="nHS9BQ21Hv6cFwP2-atW-27">
          <mxGeometry width="50" height="50" relative="1" as="geometry">
            <mxPoint x="540" y="-640" as="sourcePoint" />
            <mxPoint x="590" y="-690" as="targetPoint" />
            <Array as="points">
              <mxPoint x="655" y="-475" />
            </Array>
          </mxGeometry>
        </mxCell>
        <mxCell id="nHS9BQ21Hv6cFwP2-atW-51" value="&lt;font color=&quot;#00994d&quot;&gt;PAYMENT&lt;br&gt;REMOVED FROM&lt;br&gt;FEE RECORD&lt;/font&gt;" style="edgeLabel;html=1;align=center;verticalAlign=middle;resizable=0;points=[];" vertex="1" connectable="0" parent="nHS9BQ21Hv6cFwP2-atW-50">
          <mxGeometry x="0.2184" relative="1" as="geometry">
            <mxPoint x="-2" y="-37" as="offset" />
          </mxGeometry>
        </mxCell>
        <mxCell id="nHS9BQ21Hv6cFwP2-atW-52" value="" style="endArrow=classic;html=1;rounded=0;entryX=0.25;entryY=0;entryDx=0;entryDy=0;exitX=0.75;exitY=0;exitDx=0;exitDy=0;" edge="1" parent="1" source="nHS9BQ21Hv6cFwP2-atW-2" target="nHS9BQ21Hv6cFwP2-atW-7">
          <mxGeometry width="50" height="50" relative="1" as="geometry">
            <mxPoint x="250" y="-730" as="sourcePoint" />
            <mxPoint x="860" y="-730" as="targetPoint" />
            <Array as="points">
              <mxPoint x="250" y="-710" />
              <mxPoint x="1060" y="-710" />
            </Array>
          </mxGeometry>
        </mxCell>
        <mxCell id="nHS9BQ21Hv6cFwP2-atW-73" value="&lt;font color=&quot;#00994d&quot;&gt;MANUALLY SET&lt;br&gt;COMPLETED&lt;/font&gt;" style="edgeLabel;html=1;align=center;verticalAlign=middle;resizable=0;points=[];" vertex="1" connectable="0" parent="nHS9BQ21Hv6cFwP2-atW-52">
          <mxGeometry x="0.8947" y="1" relative="1" as="geometry">
            <mxPoint y="7" as="offset" />
          </mxGeometry>
        </mxCell>
        <mxCell id="nHS9BQ21Hv6cFwP2-atW-58" value="" style="endArrow=classic;html=1;rounded=0;exitX=1;exitY=0.75;exitDx=0;exitDy=0;entryX=0;entryY=0.5;entryDx=0;entryDy=0;" edge="1" parent="1" source="nHS9BQ21Hv6cFwP2-atW-6" target="nHS9BQ21Hv6cFwP2-atW-32">
          <mxGeometry width="50" height="50" relative="1" as="geometry">
            <mxPoint x="790" y="-550" as="sourcePoint" />
            <mxPoint x="860" y="-579" as="targetPoint" />
            <Array as="points">
              <mxPoint x="850" y="-579" />
              <mxPoint x="850" y="-596" />
            </Array>
          </mxGeometry>
        </mxCell>
        <mxCell id="nHS9BQ21Hv6cFwP2-atW-59" value="&lt;font color=&quot;#00994d&quot;&gt;FEE RECORD&lt;br&gt;KEYED&lt;/font&gt;" style="edgeLabel;html=1;align=center;verticalAlign=middle;resizable=0;points=[];" vertex="1" connectable="0" parent="nHS9BQ21Hv6cFwP2-atW-58">
          <mxGeometry x="-0.3635" relative="1" as="geometry">
            <mxPoint x="9" as="offset" />
          </mxGeometry>
        </mxCell>
        <mxCell id="nHS9BQ21Hv6cFwP2-atW-61" value="" style="endArrow=classic;html=1;rounded=0;exitX=0.25;exitY=1;exitDx=0;exitDy=0;entryX=1;entryY=0.5;entryDx=0;entryDy=0;" edge="1" parent="1" source="nHS9BQ21Hv6cFwP2-atW-7" target="nHS9BQ21Hv6cFwP2-atW-66">
          <mxGeometry width="50" height="50" relative="1" as="geometry">
            <mxPoint x="540" y="-480" as="sourcePoint" />
            <mxPoint x="740" y="-395" as="targetPoint" />
            <Array as="points">
              <mxPoint x="1060" y="-395" />
            </Array>
          </mxGeometry>
        </mxCell>
        <mxCell id="nHS9BQ21Hv6cFwP2-atW-62" value="&lt;font color=&quot;#00994d&quot;&gt;MANUALLY SET&lt;br&gt;INCOMPLETE&lt;/font&gt;" style="edgeLabel;html=1;align=center;verticalAlign=middle;resizable=0;points=[];" vertex="1" connectable="0" parent="nHS9BQ21Hv6cFwP2-atW-61">
          <mxGeometry x="-0.8338" y="2" relative="1" as="geometry">
            <mxPoint y="-28" as="offset" />
          </mxGeometry>
        </mxCell>
        <mxCell id="nHS9BQ21Hv6cFwP2-atW-66" value="&lt;font style=&quot;font-size: 10px;&quot;&gt;REPORT&lt;br&gt;UPLOADED?&lt;br&gt;&lt;/font&gt;" style="rhombus;whiteSpace=wrap;html=1;labelBackgroundColor=none;fillColor=#CCCCCC;fontColor=default;" vertex="1" parent="1">
          <mxGeometry x="364" y="-450" width="110" height="110" as="geometry" />
        </mxCell>
        <mxCell id="nHS9BQ21Hv6cFwP2-atW-71" value="" style="endArrow=classic;html=1;rounded=0;exitX=0;exitY=0.5;exitDx=0;exitDy=0;entryX=0.75;entryY=1;entryDx=0;entryDy=0;" edge="1" parent="1" source="nHS9BQ21Hv6cFwP2-atW-66" target="nHS9BQ21Hv6cFwP2-atW-2">
          <mxGeometry width="50" height="50" relative="1" as="geometry">
            <mxPoint x="540" y="-480" as="sourcePoint" />
            <mxPoint x="590" y="-530" as="targetPoint" />
            <Array as="points">
              <mxPoint x="250" y="-395" />
            </Array>
          </mxGeometry>
        </mxCell>
        <mxCell id="nHS9BQ21Hv6cFwP2-atW-72" value="NO" style="edgeLabel;html=1;align=center;verticalAlign=middle;resizable=0;points=[];" vertex="1" connectable="0" parent="nHS9BQ21Hv6cFwP2-atW-71">
          <mxGeometry x="-0.8621" y="1" relative="1" as="geometry">
            <mxPoint x="-2" as="offset" />
          </mxGeometry>
        </mxCell>
        <mxCell id="nHS9BQ21Hv6cFwP2-atW-74" value="" style="endArrow=classic;html=1;rounded=0;entryX=0;entryY=0.5;entryDx=0;entryDy=0;exitX=0.5;exitY=0;exitDx=0;exitDy=0;" edge="1" parent="1" source="nHS9BQ21Hv6cFwP2-atW-27" target="nHS9BQ21Hv6cFwP2-atW-6">
          <mxGeometry width="50" height="50" relative="1" as="geometry">
            <mxPoint x="540" y="-480" as="sourcePoint" />
            <mxPoint x="590" y="-530" as="targetPoint" />
            <Array as="points">
              <mxPoint x="570" y="-596" />
            </Array>
          </mxGeometry>
        </mxCell>
        <mxCell id="nHS9BQ21Hv6cFwP2-atW-75" value="NO" style="edgeLabel;html=1;align=center;verticalAlign=middle;resizable=0;points=[];" vertex="1" connectable="0" parent="nHS9BQ21Hv6cFwP2-atW-74">
          <mxGeometry x="-0.6285" relative="1" as="geometry">
            <mxPoint as="offset" />
          </mxGeometry>
        </mxCell>
        <mxCell id="nHS9BQ21Hv6cFwP2-atW-76" value="" style="endArrow=classic;html=1;rounded=0;exitX=0;exitY=0.5;exitDx=0;exitDy=0;entryX=0.75;entryY=1;entryDx=0;entryDy=0;" edge="1" parent="1" source="nHS9BQ21Hv6cFwP2-atW-27" target="nHS9BQ21Hv6cFwP2-atW-5">
          <mxGeometry width="50" height="50" relative="1" as="geometry">
            <mxPoint x="540" y="-480" as="sourcePoint" />
            <mxPoint x="590" y="-530" as="targetPoint" />
            <Array as="points">
              <mxPoint x="480" y="-475" />
            </Array>
          </mxGeometry>
        </mxCell>
        <mxCell id="nHS9BQ21Hv6cFwP2-atW-77" value="YES" style="edgeLabel;html=1;align=center;verticalAlign=middle;resizable=0;points=[];" vertex="1" connectable="0" parent="nHS9BQ21Hv6cFwP2-atW-76">
          <mxGeometry x="-0.7038" y="3" relative="1" as="geometry">
            <mxPoint x="-17" y="-20" as="offset" />
          </mxGeometry>
        </mxCell>
        <mxCell id="nHS9BQ21Hv6cFwP2-atW-78" value="" style="endArrow=classic;html=1;rounded=0;exitX=0.5;exitY=0;exitDx=0;exitDy=0;entryX=0.25;entryY=1;entryDx=0;entryDy=0;" edge="1" parent="1" source="nHS9BQ21Hv6cFwP2-atW-66" target="nHS9BQ21Hv6cFwP2-atW-5">
          <mxGeometry width="50" height="50" relative="1" as="geometry">
            <mxPoint x="540" y="-480" as="sourcePoint" />
            <mxPoint x="590" y="-530" as="targetPoint" />
          </mxGeometry>
        </mxCell>
        <mxCell id="nHS9BQ21Hv6cFwP2-atW-79" value="YES" style="edgeLabel;html=1;align=center;verticalAlign=middle;resizable=0;points=[];" vertex="1" connectable="0" parent="nHS9BQ21Hv6cFwP2-atW-78">
          <mxGeometry x="-0.6005" relative="1" as="geometry">
            <mxPoint as="offset" />
          </mxGeometry>
        </mxCell>
        <mxCell id="nHS9BQ21Hv6cFwP2-atW-81" value="" style="ellipse;fillColor=strokeColor;html=1;" vertex="1" parent="1">
          <mxGeometry x="20" y="-791.25" width="30" height="30" as="geometry" />
        </mxCell>
        <mxCell id="nHS9BQ21Hv6cFwP2-atW-82" value="START" style="text;html=1;strokeColor=none;fillColor=none;align=center;verticalAlign=middle;whiteSpace=wrap;rounded=0;" vertex="1" parent="1">
          <mxGeometry x="55" y="-791.25" width="50" height="30" as="geometry" />
        </mxCell>
        <mxCell id="nHS9BQ21Hv6cFwP2-atW-83" value="&lt;font color=&quot;#6600cc&quot;&gt;STATE&lt;/font&gt;" style="html=1;align=center;verticalAlign=middle;rounded=1;absoluteArcSize=1;arcSize=10;dashed=0;whiteSpace=wrap;" vertex="1" parent="1">
          <mxGeometry x="130" y="-810" width="120" height="67.5" as="geometry" />
        </mxCell>
        <mxCell id="nHS9BQ21Hv6cFwP2-atW-84" value="" style="endArrow=classic;html=1;rounded=0;exitX=1;exitY=0.5;exitDx=0;exitDy=0;" edge="1" parent="1">
          <mxGeometry width="50" height="50" relative="1" as="geometry">
            <mxPoint x="270" y="-780" as="sourcePoint" />
            <mxPoint x="390" y="-780" as="targetPoint" />
          </mxGeometry>
        </mxCell>
        <mxCell id="nHS9BQ21Hv6cFwP2-atW-85" value="&lt;font color=&quot;#00994d&quot;&gt;EVENT&lt;/font&gt;" style="edgeLabel;html=1;align=center;verticalAlign=middle;resizable=0;points=[];" vertex="1" connectable="0" parent="nHS9BQ21Hv6cFwP2-atW-84">
          <mxGeometry x="-0.0846" y="3" relative="1" as="geometry">
            <mxPoint x="3" y="3" as="offset" />
          </mxGeometry>
        </mxCell>
      </root>
    </mxGraphModel>
  </diagram>
</mxfile>
